<svg width="274" height="274" fill="none" xmlns="http://www.w3.org/2000/svg"><path d="M173.533 178.1a4.568 4.568 0 00-4.566-4.566 4.568 4.568 0 00-4.566 4.566v9.134a4.568 4.568 0 004.566 4.566 4.568 4.568 0 004.566-4.566V178.1zm-4.566 50.233a4.569 4.569 0 00-4.567 4.567v18.266a4.569 4.569 0 004.567 4.567 4.568 4.568 0 004.566-4.567V232.9a4.567 4.567 0 00-4.566-4.567zM191.8 123.3a4.569 4.569 0 00-4.567-4.567 4.568 4.568 0 00-4.566 4.567v9.133a4.568 4.568 0 004.566 4.567 4.569 4.569 0 004.567-4.567V123.3zm-18.267 27.4a4.568 4.568 0 00-4.566-4.567 4.568 4.568 0 00-4.566 4.567v9.133a4.568 4.568 0 004.566 4.567 4.568 4.568 0 004.566-4.567V150.7zm.001 54.8a4.568 4.568 0 00-9.134 0v9.134a4.568 4.568 0 004.567 4.566 4.568 4.568 0 004.566-4.566V205.5h.001zm18.266-54.8a4.569 4.569 0 00-4.567-4.567 4.568 4.568 0 00-4.566 4.567v9.133a4.568 4.568 0 004.566 4.567 4.569 4.569 0 004.567-4.567V150.7zm-36.533-27.4a4.569 4.569 0 00-4.567-4.567 4.568 4.568 0 00-4.566 4.567v9.133A4.568 4.568 0 00150.7 137a4.569 4.569 0 004.567-4.567V123.3zm18.266 0a4.568 4.568 0 00-4.566-4.567 4.568 4.568 0 00-4.566 4.567v9.133a4.568 4.568 0 004.566 4.567 4.568 4.568 0 004.566-4.567V123.3zM191.8 77.634V68.5a4.568 4.568 0 00-4.567-4.566 4.568 4.568 0 00-4.566 4.566v9.134a4.568 4.568 0 004.566 4.566 4.568 4.568 0 004.567-4.566zM155.267 150.7a4.569 4.569 0 00-4.567-4.567 4.568 4.568 0 00-4.566 4.567v9.133a4.568 4.568 0 004.566 4.567 4.569 4.569 0 004.567-4.567V150.7zm54.799-82.2a4.568 4.568 0 00-9.133 0v9.134a4.568 4.568 0 009.133 0V68.5zM150.7 173.534a4.568 4.568 0 00-4.566 4.566v9.134a4.568 4.568 0 009.133 0V178.1a4.568 4.568 0 00-4.567-4.566zm77.633 31.966a4.567 4.567 0 00-9.133 0v9.134a4.568 4.568 0 004.566 4.566 4.568 4.568 0 004.567-4.566V205.5zm-4.567 22.833a4.568 4.568 0 00-4.566 4.567v18.266a4.568 4.568 0 004.566 4.567 4.569 4.569 0 004.567-4.567V232.9a4.568 4.568 0 00-4.567-4.567zm18.268-54.799a4.568 4.568 0 00-4.567 4.566v9.134a4.568 4.568 0 004.567 4.566 4.568 4.568 0 004.566-4.566V178.1a4.568 4.568 0 00-4.566-4.566z" fill="#fff"/><path d="M168.967 82.2a4.568 4.568 0 004.566-4.567V58.367L219.2 46.95v76.35a4.577 4.577 0 002.964 4.279l33.57 12.586v47.068a4.568 4.568 0 004.566 4.567 4.569 4.569 0 004.567-4.567V137a4.576 4.576 0 00-2.964-4.279l-33.57-12.586V31.966a4.568 4.568 0 00-4.567-4.566 4.568 4.568 0 00-4.566 4.566v5.567L167.857 50.37a4.563 4.563 0 00-3.457 4.43v22.833a4.569 4.569 0 004.567 4.567z" fill="#fff"/><path d="M246.6 150.7a4.568 4.568 0 00-4.566-4.567 4.569 4.569 0 00-4.567 4.567v9.133a4.569 4.569 0 004.567 4.567 4.568 4.568 0 004.566-4.567V150.7zm-18.266 0a4.569 4.569 0 00-4.567-4.567 4.568 4.568 0 00-4.566 4.567v9.133a4.568 4.568 0 004.566 4.567 4.569 4.569 0 004.567-4.567V150.7zM191.8 205.5a4.568 4.568 0 00-9.133 0v9.134a4.568 4.568 0 004.566 4.566 4.568 4.568 0 004.567-4.566V205.5zm36.534-27.4a4.568 4.568 0 00-9.133 0v9.134a4.568 4.568 0 009.133 0V178.1zm-41.101 50.233a4.568 4.568 0 00-4.566 4.567v18.266a4.568 4.568 0 004.566 4.567 4.569 4.569 0 004.567-4.567V232.9a4.569 4.569 0 00-4.567-4.567zM191.8 178.1a4.568 4.568 0 00-4.567-4.566 4.568 4.568 0 00-4.566 4.566v9.134a4.568 4.568 0 004.566 4.566 4.568 4.568 0 004.567-4.566V178.1z" fill="#fff"/><path d="M205.5 255.733a4.568 4.568 0 004.566-4.566V105.033a4.567 4.567 0 00-3.457-4.429l-73.066-18.267a4.576 4.576 0 00-3.919.83 4.561 4.561 0 00-1.758 3.6v100.466a4.568 4.568 0 009.133 0V92.617l63.934 15.983v142.567a4.568 4.568 0 004.567 4.566zM100.466 95.9a4.568 4.568 0 00-4.566-4.567 4.568 4.568 0 00-4.567 4.567v9.133A4.568 4.568 0 0095.9 109.6a4.568 4.568 0 004.566-4.567V95.9zm0-27.4a4.568 4.568 0 00-4.566-4.566 4.568 4.568 0 00-4.567 4.566v9.134A4.568 4.568 0 0095.9 82.2a4.568 4.568 0 004.566-4.566V68.5zm-36.532 137a4.568 4.568 0 00-9.134 0v9.134a4.568 4.568 0 004.567 4.566 4.568 4.568 0 004.566-4.566V205.5z" fill="#fff"/><path d="M22.834 164.4a4.568 4.568 0 004.566-4.566V137h45.667v114.167a4.568 4.568 0 004.566 4.566 4.568 4.568 0 004.567-4.566V132.434a4.568 4.568 0 00-4.567-4.567h-54.8a4.568 4.568 0 00-4.566 4.567v27.4a4.568 4.568 0 004.567 4.566zm50.233-68.5v9.133a4.568 4.568 0 004.566 4.567 4.568 4.568 0 004.567-4.567V95.9a4.568 4.568 0 00-4.567-4.567 4.568 4.568 0 00-4.566 4.567zm27.399-54.8a4.568 4.568 0 00-4.566-4.566 4.568 4.568 0 00-4.567 4.566v9.134A4.568 4.568 0 0095.9 54.8a4.568 4.568 0 004.566-4.566V41.1z" fill="#fff"/><path d="M59.367 228.333A4.569 4.569 0 0054.8 232.9v18.266a4.569 4.569 0 004.567 4.567 4.568 4.568 0 004.566-4.567V232.9a4.568 4.568 0 00-4.566-4.567z" fill="#fff"/><path d="M269.434 264.867H260.3v-28.049c7.854-2.041 13.7-9.133 13.7-17.618 0-10.075-8.193-18.267-18.266-18.267-10.074 0-18.267 8.193-18.267 18.267 0 8.485 5.846 15.576 13.7 17.618v28.049H137v-18.728c10.407-2.124 18.266-11.344 18.266-22.372 0-12.59-10.242-22.834-22.833-22.834-12.59 0-22.834 10.243-22.834 22.834 0 11.028 7.86 20.248 18.267 22.372v18.728H27.4v-46.128c10.407-2.124 18.267-11.344 18.267-22.372 0-12.59-10.243-22.834-22.834-22.834C10.243 173.534 0 183.777 0 196.367c0 11.028 7.86 20.248 18.267 22.372v46.128h-13.7A4.568 4.568 0 000 269.433 4.568 4.568 0 004.566 274h264.867a4.568 4.568 0 00.001-9.133zm-260.3-68.5c0-7.553 6.146-13.7 13.7-13.7 7.553 0 13.7 6.147 13.7 13.7 0 7.553-6.147 13.7-13.7 13.7-7.554 0-13.7-6.147-13.7-13.7zm109.6 27.4c0-7.553 6.146-13.7 13.7-13.7 7.553 0 13.699 6.147 13.699 13.7 0 7.553-6.146 13.7-13.699 13.7-7.554 0-13.7-6.147-13.7-13.7zM246.6 219.2c0-5.037 4.096-9.133 9.134-9.133 5.037 0 9.133 4.096 9.133 9.133 0 5.037-4.096 9.134-9.133 9.134-5.038 0-9.134-4.097-9.134-9.134z" fill="#fff"/><path d="M36.534 232.9v18.266a4.568 4.568 0 004.566 4.567 4.568 4.568 0 004.566-4.567V232.9a4.568 4.568 0 00-4.566-4.567 4.568 4.568 0 00-4.566 4.567zm27.4-82.2a4.568 4.568 0 00-4.567-4.567 4.568 4.568 0 00-4.566 4.567v9.133a4.568 4.568 0 004.566 4.567 4.568 4.568 0 004.567-4.567V150.7zm0 27.4a4.568 4.568 0 00-4.567-4.566 4.568 4.568 0 00-4.566 4.566v9.134a4.568 4.568 0 004.566 4.566 4.568 4.568 0 004.567-4.566V178.1zm-27.4-27.4v9.133A4.568 4.568 0 0041.1 164.4a4.568 4.568 0 004.566-4.567V150.7a4.568 4.568 0 00-4.566-4.567 4.568 4.568 0 00-4.566 4.567zm63.932 27.4a4.568 4.568 0 00-4.566-4.566 4.568 4.568 0 00-4.567 4.566v9.134A4.568 4.568 0 0095.9 191.8a4.568 4.568 0 004.566-4.566V178.1zm18.268-54.8a4.569 4.569 0 00-4.567-4.567 4.568 4.568 0 00-4.566 4.567v9.133a4.568 4.568 0 004.566 4.567 4.569 4.569 0 004.567-4.567V123.3zm0-27.4a4.568 4.568 0 00-9.133 0v9.133a4.568 4.568 0 004.566 4.567 4.569 4.569 0 004.567-4.567V95.9zm0 54.8a4.569 4.569 0 00-4.567-4.567 4.568 4.568 0 00-4.566 4.567v9.133a4.568 4.568 0 004.566 4.567 4.569 4.569 0 004.567-4.567V150.7zm-4.568 22.834a4.568 4.568 0 00-4.566 4.566v9.134a4.568 4.568 0 004.566 4.566 4.568 4.568 0 004.567-4.566V178.1a4.568 4.568 0 00-4.567-4.566zM118.734 68.5a4.568 4.568 0 00-9.133 0v9.134a4.568 4.568 0 009.133 0V68.5zm-18.268 137a4.567 4.567 0 00-9.132 0v9.134A4.568 4.568 0 0095.9 219.2a4.568 4.568 0 004.566-4.566V205.5z" fill="#fff"/><path d="M59.367 118.734a4.568 4.568 0 004.566-4.567V80.455l15.741-7.868A4.572 4.572 0 0082.2 68.5V30.222l22.834-11.416 22.833 11.416V68.5a4.568 4.568 0 004.567 4.567A4.568 4.568 0 00137 68.5V27.4a4.57 4.57 0 00-2.525-4.087L109.6 10.878V4.566A4.568 4.568 0 00105.034 0a4.568 4.568 0 00-4.567 4.566v6.312L75.592 23.312a4.572 4.572 0 00-2.525 4.087v38.278l-15.741 7.868a4.572 4.572 0 00-2.526 4.087v36.534a4.568 4.568 0 004.567 4.568zm41.099 31.966a4.568 4.568 0 00-4.566-4.567 4.568 4.568 0 00-4.567 4.567v9.133A4.568 4.568 0 0095.9 164.4a4.568 4.568 0 004.566-4.567V150.7zM95.9 228.333a4.568 4.568 0 00-4.567 4.567v18.266a4.568 4.568 0 004.567 4.567 4.568 4.568 0 004.566-4.567V232.9a4.568 4.568 0 00-4.566-4.567z" fill="#fff"/><path d="M118.734 41.1a4.568 4.568 0 00-9.133 0v9.134a4.568 4.568 0 009.133 0V41.1zm-18.268 82.2a4.568 4.568 0 00-4.566-4.567 4.568 4.568 0 00-4.567 4.567v9.133A4.568 4.568 0 0095.9 137a4.568 4.568 0 004.566-4.567V123.3z" fill="#fff"/></svg>