<svg width="80" height="94" fill="none" xmlns="http://www.w3.org/2000/svg"><path d="M71.333 35.25a7.788 7.788 0 00-3.966 1.08c-.438-3.908-3.762-6.955-7.784-6.955a7.78 7.78 0 00-5.035 1.846 7.833 7.833 0 00-6.715-3.804 7.78 7.78 0 00-3.916 1.051V7.833c0-4.32-3.513-7.833-7.834-7.833-4.32 0-7.833 3.513-7.833 7.833v52.413c0 .986-.65 1.493-.93 1.665-.279.172-1.03.526-1.904.086L12.839 55.71a8.327 8.327 0 00-3.71-.876c-4.574 0-8.296 3.722-8.296 8.297v1.495c0 .543.226 1.061.622 1.432l22.603 21.096A25.385 25.385 0 0041.428 94h12.28c14.038 0 25.459-11.421 25.459-25.458V43.083c0-4.32-3.513-7.833-7.834-7.833z" fill="#fff"/></svg>