<svg width="17" height="13" fill="none" xmlns="http://www.w3.org/2000/svg"><path d="M16.995.805a.296.296 0 00-.034-.109c-.005-.008-.006-.017-.011-.025-.005-.008-.012-.01-.018-.017a.29.29 0 00-.191-.1c-.009 0-.016-.005-.025-.005H.283a.26.26 0 00-.025.005.292.292 0 00-.105.03.282.282 0 00-.085.07C.062.661.055.664.05.672.045.679.044.689.04.697a.272.272 0 00-.035.109C.005.816 0 .824 0 .834v11.333c0 .157.127.283.283.283h16.434a.283.283 0 00.283-.283V.834c0-.01-.005-.018-.005-.029zm-1.188.312L8.5 6.157l-7.307-5.04h14.614zm.626 10.767H.567V1.374l7.772 5.36a.283.283 0 00.322 0l7.772-5.36v10.51z" fill="#fff"/></svg>