<svg width="11" height="21" fill="none" xmlns="http://www.w3.org/2000/svg"><path d="M9.488.702h-8.24C.562.702 0 1.297 0 2.025v16.934c0 .728.562 1.323 1.248 1.323h8.24c.686 0 1.248-.594 1.248-1.322V2.025c0-.728-.562-1.323-1.248-1.323zm-5.438.953h2.636c.083 0 .15.072.15.161 0 .088-.067.16-.15.16H4.05a.156.156 0 01-.151-.16c0-.089.068-.16.151-.16zm1.318 17.966c-.345 0-.624-.296-.624-.662 0-.366.28-.66.624-.66.345 0 .624.294.624.66 0 .366-.28.662-.624.662zm4.5-1.786h-9V2.799h9v15.036z" fill="#fff"/></svg>