<svg width="50" height="50" fill="none" xmlns="http://www.w3.org/2000/svg"><path d="M25 0C11.193 0 0 11.193 0 25s11.193 25 25 25 25-11.193 25-25C49.984 11.2 38.8.015 25 0zm21.621 33.758l-7.11 1.227a37.305 37.305 0 001.309-9.152h7.493a23.178 23.178 0 01-1.692 7.925zM1.688 25.833H9.18a37.306 37.306 0 001.308 9.152l-7.11-1.227a23.178 23.178 0 01-1.69-7.925zm1.691-9.591l7.11-1.227a37.306 37.306 0 00-1.308 9.152H1.687c.094-2.72.667-5.404 1.691-7.925zm22.455-2.862c2.995.038 5.982.311 8.934.816l2.941.507a35.77 35.77 0 011.446 9.464h-13.32V13.38zm9.218-.827a59.068 59.068 0 00-9.218-.84v-10c4.778.46 8.928 4.834 11.28 11.2l-2.062-.36zm-10.884-.84c-3.09.039-6.171.32-9.217.84l-2.063.357c2.352-6.367 6.502-10.743 11.28-11.2v10.003zm-8.933 2.483a57.314 57.314 0 018.933-.816v10.787H10.846a35.77 35.77 0 011.446-9.464l2.942-.507zm-4.388 11.637h13.32V36.62a57.329 57.329 0 01-8.933-.816l-2.941-.507a35.77 35.77 0 01-1.446-9.464zm4.103 11.614c3.046.52 6.128.803 9.218.844v10c-4.778-.46-8.928-4.834-11.28-11.2l2.062.356zm10.884.844a59.21 59.21 0 009.217-.844l2.063-.357c-2.352 6.367-6.502 10.743-11.28 11.2v-9.999zm8.933-2.487a57.314 57.314 0 01-8.933.816V25.833h13.321a35.77 35.77 0 01-1.446 9.464l-2.942.507zm6.054-11.637a37.305 37.305 0 00-1.308-9.152l7.11 1.227a23.178 23.178 0 011.69 7.925H40.82zm4.958-9.762l-6.815-1.176a22.98 22.98 0 00-6.63-10.375 23.444 23.444 0 0113.445 11.551zM17.667 2.854a22.98 22.98 0 00-6.63 10.375l-6.815 1.176A23.444 23.444 0 0117.667 2.854zM4.222 35.594l6.815 1.177a22.98 22.98 0 006.63 10.375A23.444 23.444 0 014.222 35.595zm28.111 11.552a22.98 22.98 0 006.63-10.375l6.815-1.176a23.444 23.444 0 01-13.445 11.551z" fill="#fff"/></svg>