<svg width="84" height="92" xmlns="http://www.w3.org/2000/svg"><path d="M81.902 88.225h-2.558V7.909c0-.848-.687-1.535-1.534-1.535H49.162c-.848 0-1.535.687-1.535 1.535v6.65h-3.069V7.91c0-.848-.687-1.535-1.535-1.535h-6.65V1.77a1.535 1.535 0 10-3.07 0v4.604h-6.65c-.847 0-1.534.687-1.534 1.535v6.65h-4.605c-.847 0-1.534.687-1.534 1.535v12.789H6.19c-.847 0-1.534.687-1.534 1.535v57.807H2.098a1.534 1.534 0 100 3.07h79.804a1.535 1.535 0 100-3.07zM28.188 9.444h13.3v5.115h-13.3V9.444zm-5.116 78.78H22.05v-2.557a1.535 1.535 0 10-3.07 0v2.558h-1.023v-5.116h5.116v5.116zm10.231-39.39v39.39h-7.162v-6.65c0-.847-.687-1.534-1.534-1.534h-8.185c-.848 0-1.535.687-1.535 1.534v6.65H7.725V31.953h25.578v16.882zm1.535-19.95h-12.79V17.628h25.58v29.67H36.372v-5.115h4.604a1.534 1.534 0 100-3.07h-4.604V34h4.604a1.534 1.534 0 100-3.07h-4.604v-.511c0-.848-.687-1.535-1.535-1.535zm27.113 59.34H36.373V50.37H61.95v37.856zm14.324 0H65.02V46.789a1.535 1.535 0 10-3.069 0v.511h-3.07v-.511a1.535 1.535 0 10-3.069 0v.511h-5.115V9.444h25.578v78.78z"/><path d="M43.023 85.156c.848 0 1.535-.687 1.535-1.535V54.974a1.535 1.535 0 10-3.07 0V83.62c0 .848.688 1.535 1.535 1.535zm6.139 0c.848 0 1.535-.687 1.535-1.535V54.974a1.535 1.535 0 10-3.07 0V83.62c0 .848.687 1.535 1.535 1.535zm6.138 0c.848 0 1.535-.687 1.535-1.535V54.974a1.535 1.535 0 10-3.069 0V83.62c0 .848.687 1.535 1.535 1.535zm2.047-65.481c.848 0 1.535-.687 1.535-1.535v-2.046a1.535 1.535 0 10-3.07 0v2.046c0 .848.687 1.535 1.535 1.535zm6.139 0c.848 0 1.535-.687 1.535-1.535v-2.046a1.535 1.535 0 10-3.07 0v2.046c0 .848.687 1.535 1.535 1.535zm6.139 0c.847 0 1.534-.687 1.534-1.535v-2.046a1.535 1.535 0 10-3.069 0v2.046c0 .848.687 1.535 1.535 1.535zM57.347 29.906c.848 0 1.535-.687 1.535-1.534v-2.047a1.535 1.535 0 10-3.07 0v2.047c0 .847.687 1.534 1.535 1.534zm6.139 0c.848 0 1.535-.687 1.535-1.534v-2.047a1.535 1.535 0 10-3.07 0v2.047c0 .847.687 1.534 1.535 1.534zm6.139 0c.847 0 1.534-.687 1.534-1.534v-2.047a1.535 1.535 0 10-3.069 0v2.047c0 .847.687 1.534 1.535 1.534zM57.347 40.138c.848 0 1.535-.687 1.535-1.535v-2.046a1.535 1.535 0 10-3.07 0v2.046c0 .848.687 1.535 1.535 1.535zm6.139 0c.848 0 1.535-.687 1.535-1.535v-2.046a1.535 1.535 0 10-3.07 0v2.046c0 .848.687 1.535 1.535 1.535zm6.139 0c.847 0 1.534-.687 1.534-1.535v-2.046a1.535 1.535 0 10-3.069 0v2.046c0 .848.687 1.535 1.535 1.535zm-55.25 4.092c.848 0 1.535-.687 1.535-1.535V40.65a1.535 1.535 0 10-3.07 0v2.046c0 .848.688 1.535 1.535 1.535zm6.139 0c.848 0 1.535-.687 1.535-1.535V40.65a1.535 1.535 0 10-3.07 0v2.046c0 .848.688 1.535 1.535 1.535zm6.139 0c.848 0 1.535-.687 1.535-1.535V40.65a1.535 1.535 0 10-3.07 0v2.046c0 .848.687 1.535 1.535 1.535zM14.375 54.461c.848 0 1.535-.686 1.535-1.534V50.88a1.535 1.535 0 10-3.07 0v2.047c0 .847.688 1.534 1.535 1.534zm6.139 0c.848 0 1.535-.686 1.535-1.534V50.88a1.535 1.535 0 10-3.07 0v2.047c0 .847.688 1.534 1.535 1.534zm6.139 0c.848 0 1.535-.686 1.535-1.534V50.88a1.535 1.535 0 10-3.07 0v2.047c0 .847.687 1.534 1.535 1.534zM14.375 64.693c.848 0 1.535-.687 1.535-1.535v-2.046a1.535 1.535 0 10-3.07 0v2.046c0 .848.688 1.535 1.535 1.535zm6.139 0c.848 0 1.535-.687 1.535-1.535v-2.046a1.535 1.535 0 10-3.07 0v2.046c0 .848.688 1.535 1.535 1.535zm6.139 0c.848 0 1.535-.687 1.535-1.535v-2.046a1.535 1.535 0 10-3.07 0v2.046c0 .848.687 1.535 1.535 1.535zM14.375 74.924c.848 0 1.535-.687 1.535-1.534v-2.047a1.535 1.535 0 10-3.07 0v2.047c0 .847.688 1.534 1.535 1.534zm6.139 0c.848 0 1.535-.687 1.535-1.534v-2.047a1.535 1.535 0 10-3.07 0v2.047c0 .847.688 1.534 1.535 1.534zm6.139 0c.848 0 1.535-.687 1.535-1.534v-2.047a1.535 1.535 0 10-3.07 0v2.047c0 .847.687 1.534 1.535 1.534zM69.625 50.37c.847 0 1.534-.688 1.534-1.536v-2.046a1.535 1.535 0 10-3.069 0v2.046c0 .848.687 1.535 1.535 1.535zm0 10.23c.847 0 1.534-.687 1.534-1.535V57.02a1.535 1.535 0 10-3.069 0v2.046c0 .848.687 1.535 1.535 1.535zm0 10.232c.847 0 1.534-.687 1.534-1.535V67.25a1.535 1.535 0 10-3.069 0v2.046c0 .847.687 1.535 1.535 1.535zm0 10.231c.847 0 1.534-.687 1.534-1.535v-2.046a1.535 1.535 0 10-3.069 0v2.046c0 .848.687 1.535 1.535 1.535zM42.511 24.279c0-.848-.687-1.535-1.534-1.535H28.699a1.534 1.534 0 100 3.07h12.278c.848 0 1.535-.687 1.535-1.535z"/></svg>