<svg width="274" height="274" viewBox="0 0 274 274" fill="none" xmlns="http://www.w3.org/2000/svg">
<path d="M173.533 178.1C173.533 175.58 171.488 173.534 168.967 173.534C166.446 173.534 164.401 175.58 164.401 178.1V187.234C164.401 189.754 166.446 191.8 168.967 191.8C171.488 191.8 173.533 189.754 173.533 187.234V178.1Z" fill="white"/>
<path d="M168.967 228.333C166.446 228.333 164.4 230.379 164.4 232.9V251.166C164.4 253.687 166.446 255.733 168.967 255.733C171.487 255.733 173.533 253.687 173.533 251.166V232.9C173.534 230.379 171.488 228.333 168.967 228.333Z" fill="white"/>
<path d="M191.8 123.3C191.8 120.779 189.754 118.733 187.233 118.733C184.713 118.733 182.667 120.779 182.667 123.3V132.433C182.667 134.954 184.713 137 187.233 137C189.754 137 191.8 134.954 191.8 132.433V123.3Z" fill="white"/>
<path d="M173.533 150.7C173.533 148.179 171.488 146.133 168.967 146.133C166.446 146.133 164.401 148.179 164.401 150.7V159.833C164.401 162.354 166.446 164.4 168.967 164.4C171.488 164.4 173.533 162.354 173.533 159.833V150.7Z" fill="white"/>
<path d="M173.534 205.5C173.534 202.979 171.488 200.934 168.967 200.934C166.446 200.934 164.4 202.979 164.4 205.5V214.634C164.4 217.154 166.446 219.2 168.967 219.2C171.487 219.2 173.533 217.154 173.533 214.634V205.5H173.534Z" fill="white"/>
<path d="M191.8 150.7C191.8 148.179 189.754 146.133 187.233 146.133C184.713 146.133 182.667 148.179 182.667 150.7V159.833C182.667 162.354 184.713 164.4 187.233 164.4C189.754 164.4 191.8 162.354 191.8 159.833V150.7Z" fill="white"/>
<path d="M155.267 123.3C155.267 120.779 153.221 118.733 150.7 118.733C148.179 118.733 146.134 120.779 146.134 123.3V132.433C146.134 134.954 148.179 137 150.7 137C153.221 137 155.267 134.954 155.267 132.433V123.3Z" fill="white"/>
<path d="M173.533 123.3C173.533 120.779 171.488 118.733 168.967 118.733C166.446 118.733 164.401 120.779 164.401 123.3V132.433C164.401 134.954 166.446 137 168.967 137C171.488 137 173.533 134.954 173.533 132.433V123.3Z" fill="white"/>
<path d="M191.8 77.6336V68.5001C191.8 65.9795 189.754 63.9336 187.233 63.9336C184.713 63.9336 182.667 65.9795 182.667 68.5001V77.6336C182.667 80.1542 184.713 82.2001 187.233 82.2001C189.754 82.2001 191.8 80.1542 191.8 77.6336Z" fill="white"/>
<path d="M155.267 150.7C155.267 148.179 153.221 146.133 150.7 146.133C148.179 146.133 146.134 148.179 146.134 150.7V159.833C146.134 162.354 148.179 164.4 150.7 164.4C153.221 164.4 155.267 162.354 155.267 159.833V150.7Z" fill="white"/>
<path d="M210.066 68.5001C210.066 65.9795 208.021 63.9336 205.5 63.9336C202.979 63.9336 200.933 65.9795 200.933 68.5001V77.6336C200.933 80.1542 202.979 82.2001 205.5 82.2001C208.021 82.2001 210.066 80.1542 210.066 77.6336V68.5001Z" fill="white"/>
<path d="M150.7 173.534C148.179 173.534 146.134 175.58 146.134 178.1V187.234C146.134 189.754 148.179 191.8 150.7 191.8C153.221 191.8 155.267 189.754 155.267 187.234V178.1C155.267 175.58 153.221 173.534 150.7 173.534Z" fill="white"/>
<path d="M228.333 205.5C228.333 202.979 226.288 200.934 223.767 200.934C221.246 200.934 219.2 202.979 219.2 205.5V214.634C219.2 217.154 221.246 219.2 223.766 219.2C226.287 219.2 228.333 217.154 228.333 214.634V205.5H228.333Z" fill="white"/>
<path d="M223.766 228.333C221.246 228.333 219.2 230.379 219.2 232.9V251.166C219.2 253.687 221.246 255.733 223.766 255.733C226.287 255.733 228.333 253.687 228.333 251.166V232.9C228.333 230.379 226.288 228.333 223.766 228.333Z" fill="white"/>
<path d="M242.034 173.534C239.513 173.534 237.467 175.58 237.467 178.1V187.234C237.467 189.754 239.513 191.8 242.034 191.8C244.554 191.8 246.6 189.754 246.6 187.234V178.1C246.6 175.58 244.554 173.534 242.034 173.534Z" fill="white"/>
<path d="M168.967 82.1999C171.487 82.1999 173.533 80.154 173.533 77.6334V58.3667L219.2 46.9497V123.3C219.2 125.204 220.383 126.907 222.164 127.579L255.734 140.165V187.233C255.734 189.754 257.779 191.8 260.3 191.8C262.821 191.8 264.867 189.754 264.867 187.233V137C264.867 135.096 263.684 133.392 261.903 132.721L228.333 120.135V31.9664C228.333 29.4458 226.287 27.3999 223.766 27.3999C221.246 27.3999 219.2 29.4458 219.2 31.9664V37.5331L167.857 50.3699C165.825 50.8767 164.4 52.7037 164.4 54.7994V77.6329C164.4 80.154 166.446 82.1999 168.967 82.1999Z" fill="white"/>
<path d="M246.6 150.7C246.6 148.179 244.554 146.133 242.034 146.133C239.513 146.133 237.467 148.179 237.467 150.7V159.833C237.467 162.354 239.513 164.4 242.034 164.4C244.554 164.4 246.6 162.354 246.6 159.833V150.7Z" fill="white"/>
<path d="M228.334 150.7C228.334 148.179 226.288 146.133 223.767 146.133C221.246 146.133 219.201 148.179 219.201 150.7V159.833C219.201 162.354 221.246 164.4 223.767 164.4C226.288 164.4 228.334 162.354 228.334 159.833V150.7Z" fill="white"/>
<path d="M191.8 205.5C191.8 202.979 189.754 200.934 187.233 200.934C184.713 200.934 182.667 202.979 182.667 205.5V214.634C182.667 217.154 184.713 219.2 187.233 219.2C189.754 219.2 191.8 217.154 191.8 214.634V205.5Z" fill="white"/>
<path d="M228.334 178.1C228.334 175.58 226.288 173.534 223.767 173.534C221.246 173.534 219.201 175.58 219.201 178.1V187.234C219.201 189.754 221.246 191.8 223.767 191.8C226.288 191.8 228.334 189.754 228.334 187.234V178.1Z" fill="white"/>
<path d="M187.233 228.333C184.713 228.333 182.667 230.379 182.667 232.9V251.166C182.667 253.687 184.713 255.733 187.233 255.733C189.754 255.733 191.8 253.687 191.8 251.166V232.9C191.8 230.379 189.754 228.333 187.233 228.333Z" fill="white"/>
<path d="M191.8 178.1C191.8 175.58 189.754 173.534 187.233 173.534C184.713 173.534 182.667 175.58 182.667 178.1V187.234C182.667 189.754 184.713 191.8 187.233 191.8C189.754 191.8 191.8 189.754 191.8 187.234V178.1Z" fill="white"/>
<path d="M205.5 255.733C208.021 255.733 210.066 253.687 210.066 251.167V105.033C210.066 102.937 208.637 101.111 206.609 100.604L133.543 82.3368C132.187 81.9943 130.73 82.3047 129.624 83.1679C128.515 84.0311 127.866 85.3599 127.866 86.7663V187.233C127.866 189.753 129.912 191.799 132.433 191.799C134.954 191.799 136.999 189.753 136.999 187.233V92.6166L200.933 108.6V251.167C200.933 253.687 202.979 255.733 205.5 255.733Z" fill="white"/>
<path d="M100.466 95.9C100.466 93.3794 98.4206 91.3335 95.9 91.3335C93.3794 91.3335 91.3335 93.3794 91.3335 95.9V105.033C91.3335 107.554 93.3794 109.6 95.9 109.6C98.4206 109.6 100.466 107.554 100.466 105.033V95.9Z" fill="white"/>
<path d="M100.466 68.5001C100.466 65.9795 98.4206 63.9336 95.9 63.9336C93.3794 63.9336 91.3335 65.9795 91.3335 68.5001V77.6336C91.3335 80.1542 93.3794 82.2001 95.9 82.2001C98.4206 82.2001 100.466 80.1542 100.466 77.6336V68.5001Z" fill="white"/>
<path d="M63.9336 205.5C63.9336 202.979 61.8877 200.934 59.3671 200.934C56.8465 200.934 54.8 202.979 54.8 205.5V214.634C54.8 217.154 56.846 219.2 59.3665 219.2C61.8871 219.2 63.933 217.154 63.933 214.634V205.5H63.9336Z" fill="white"/>
<path d="M22.8335 164.4C25.3541 164.4 27.4 162.354 27.4 159.834V137H73.0665V251.167C73.0665 253.687 75.1124 255.733 77.633 255.733C80.1536 255.733 82.1995 253.687 82.1995 251.167V132.434C82.1995 129.913 80.1536 127.867 77.633 127.867H22.833C20.3124 127.867 18.2665 129.913 18.2665 132.434V159.834C18.2665 162.354 20.3124 164.4 22.8335 164.4Z" fill="white"/>
<path d="M73.0665 95.9V105.033C73.0665 107.554 75.1124 109.6 77.633 109.6C80.1536 109.6 82.1995 107.554 82.1995 105.033V95.9C82.1995 93.3794 80.1536 91.3335 77.633 91.3335C75.1124 91.3335 73.0665 93.3794 73.0665 95.9Z" fill="white"/>
<path d="M100.466 41.1002C100.466 38.5796 98.4206 36.5337 95.9 36.5337C93.3794 36.5337 91.3335 38.5796 91.3335 41.1002V50.2337C91.3335 52.7543 93.3794 54.8002 95.9 54.8002C98.4206 54.8002 100.466 52.7543 100.466 50.2337V41.1002Z" fill="white"/>
<path d="M59.3665 228.333C56.846 228.333 54.8 230.379 54.8 232.9V251.166C54.8 253.687 56.846 255.733 59.3665 255.733C61.8871 255.733 63.933 253.687 63.933 251.166V232.9C63.9336 230.379 61.8877 228.333 59.3665 228.333Z" fill="white"/>
<path d="M269.434 264.867H260.3V236.818C268.154 234.777 274 227.685 274 219.2C274 209.125 265.807 200.933 255.734 200.933C245.66 200.933 237.467 209.126 237.467 219.2C237.467 227.685 243.313 234.776 251.167 236.818V264.867H137V246.139C147.407 244.015 155.266 234.795 155.266 223.767C155.266 211.177 145.024 200.933 132.433 200.933C119.843 200.933 109.599 211.176 109.599 223.767C109.599 234.795 117.459 244.015 127.866 246.139V264.867H27.4V218.739C37.8072 216.615 45.6665 207.395 45.6665 196.367C45.6665 183.777 35.4236 173.533 22.833 173.533C10.2429 173.534 0 183.777 0 196.367C0 207.395 7.8593 216.615 18.2665 218.739V264.867H4.56649C2.0459 264.867 0 266.913 0 269.433C0 271.954 2.0459 274 4.56649 274H269.433C271.954 274 273.999 271.954 273.999 269.434C273.999 266.913 271.954 264.867 269.434 264.867ZM9.13351 196.367C9.13351 188.814 15.2803 182.667 22.8335 182.667C30.3867 182.667 36.5335 188.814 36.5335 196.367C36.5335 203.92 30.3867 210.067 22.8335 210.067C15.2803 210.067 9.13351 203.92 9.13351 196.367ZM118.734 223.767C118.734 216.214 124.88 210.067 132.434 210.067C139.987 210.067 146.133 216.214 146.133 223.767C146.133 231.32 139.987 237.467 132.434 237.467C124.88 237.467 118.734 231.32 118.734 223.767ZM246.6 219.2C246.6 214.163 250.696 210.067 255.734 210.067C260.771 210.067 264.867 214.163 264.867 219.2C264.867 224.237 260.771 228.334 255.734 228.334C250.696 228.334 246.6 224.237 246.6 219.2Z" fill="white"/>
<path d="M36.5336 232.9V251.166C36.5336 253.687 38.5795 255.733 41.1001 255.733C43.6206 255.733 45.6665 253.687 45.6665 251.166V232.9C45.6665 230.379 43.6206 228.333 41.1001 228.333C38.5795 228.333 36.5336 230.379 36.5336 232.9Z" fill="white"/>
<path d="M63.9335 150.7C63.9335 148.179 61.8876 146.133 59.367 146.133C56.8464 146.133 54.8005 148.179 54.8005 150.7V159.833C54.8005 162.354 56.8464 164.4 59.367 164.4C61.8876 164.4 63.9335 162.354 63.9335 159.833V150.7Z" fill="white"/>
<path d="M63.9335 178.1C63.9335 175.58 61.8876 173.534 59.367 173.534C56.8464 173.534 54.8005 175.58 54.8005 178.1V187.234C54.8005 189.754 56.8464 191.8 59.367 191.8C61.8876 191.8 63.9335 189.754 63.9335 187.234V178.1Z" fill="white"/>
<path d="M36.5336 150.7V159.833C36.5336 162.354 38.5795 164.4 41.1001 164.4C43.6206 164.4 45.6665 162.354 45.6665 159.833V150.7C45.6665 148.179 43.6206 146.133 41.1001 146.133C38.5795 146.133 36.5336 148.179 36.5336 150.7Z" fill="white"/>
<path d="M100.466 178.1C100.466 175.58 98.4206 173.534 95.9 173.534C93.3794 173.534 91.3335 175.58 91.3335 178.1V187.234C91.3335 189.754 93.3794 191.8 95.9 191.8C98.4206 191.8 100.466 189.754 100.466 187.234V178.1Z" fill="white"/>
<path d="M118.734 123.3C118.734 120.779 116.688 118.733 114.167 118.733C111.646 118.733 109.601 120.779 109.601 123.3V132.433C109.601 134.954 111.646 137 114.167 137C116.688 137 118.734 134.954 118.734 132.433V123.3Z" fill="white"/>
<path d="M118.734 95.9C118.734 93.3794 116.688 91.3335 114.167 91.3335C111.646 91.3335 109.601 93.3794 109.601 95.9V105.033C109.601 107.554 111.646 109.6 114.167 109.6C116.688 109.6 118.734 107.554 118.734 105.033V95.9Z" fill="white"/>
<path d="M118.734 150.7C118.734 148.179 116.688 146.133 114.167 146.133C111.646 146.133 109.601 148.179 109.601 150.7V159.833C109.601 162.354 111.646 164.4 114.167 164.4C116.688 164.4 118.734 162.354 118.734 159.833V150.7Z" fill="white"/>
<path d="M114.166 173.534C111.646 173.534 109.6 175.58 109.6 178.1V187.234C109.6 189.754 111.646 191.8 114.166 191.8C116.687 191.8 118.733 189.754 118.733 187.234V178.1C118.733 175.58 116.688 173.534 114.166 173.534Z" fill="white"/>
<path d="M118.734 68.5001C118.734 65.9795 116.688 63.9336 114.167 63.9336C111.646 63.9336 109.601 65.9795 109.601 68.5001V77.6336C109.601 80.1542 111.646 82.2001 114.167 82.2001C116.688 82.2001 118.734 80.1542 118.734 77.6336V68.5001Z" fill="white"/>
<path d="M100.466 205.5C100.466 202.979 98.4206 200.934 95.9 200.934C93.3794 200.934 91.3335 202.979 91.3335 205.5V214.634C91.3335 217.154 93.3794 219.2 95.9 219.2C98.4206 219.2 100.466 217.154 100.466 214.634V205.5Z" fill="white"/>
<path d="M59.3665 118.734C61.8871 118.734 63.933 116.688 63.933 114.167V80.4554L79.6741 72.587C81.2223 71.8105 82.1995 70.2307 82.1995 68.5V30.2224L105.033 18.8059L127.866 30.2224V68.5C127.866 71.0206 129.912 73.0665 132.433 73.0665C134.954 73.0665 137 71.0206 137 68.5V27.4C137 25.6693 136.023 24.089 134.475 23.313L109.6 10.8776V4.56649C109.6 2.0459 107.554 0 105.034 0C102.513 0 100.467 2.0459 100.467 4.56649V10.8776L75.5924 23.3125C74.0442 24.089 73.067 25.6688 73.067 27.3995V65.677L57.3259 73.5454C55.7777 74.322 54.8005 75.9017 54.8005 77.6324V114.166C54.8 116.688 56.8459 118.734 59.3665 118.734Z" fill="white"/>
<path d="M100.466 150.7C100.466 148.179 98.4206 146.133 95.9 146.133C93.3794 146.133 91.3335 148.179 91.3335 150.7V159.833C91.3335 162.354 93.3794 164.4 95.9 164.4C98.4206 164.4 100.466 162.354 100.466 159.833V150.7Z" fill="white"/>
<path d="M95.9 228.333C93.3794 228.333 91.3335 230.379 91.3335 232.9V251.166C91.3335 253.687 93.3794 255.733 95.9 255.733C98.4206 255.733 100.466 253.687 100.466 251.166V232.9C100.466 230.379 98.4206 228.333 95.9 228.333Z" fill="white"/>
<path d="M118.734 41.1002C118.734 38.5796 116.688 36.5337 114.167 36.5337C111.646 36.5337 109.601 38.5796 109.601 41.1002V50.2337C109.601 52.7543 111.646 54.8002 114.167 54.8002C116.688 54.8002 118.734 52.7543 118.734 50.2337V41.1002Z" fill="white"/>
<path d="M100.466 123.3C100.466 120.779 98.4206 118.733 95.9 118.733C93.3794 118.733 91.3335 120.779 91.3335 123.3V132.433C91.3335 134.954 93.3794 137 95.9 137C98.4206 137 100.466 134.954 100.466 132.433V123.3Z" fill="white"/>
</svg>
