<svg width="80" height="94" viewBox="0 0 80 94" fill="none" xmlns="http://www.w3.org/2000/svg">
<path d="M71.3334 35.25C69.8876 35.25 68.5318 35.644 67.3671 36.3304C66.929 32.4216 63.6052 29.375 59.5834 29.375C57.6709 29.375 55.9134 30.0673 54.548 31.2205C53.1767 28.9428 50.681 27.4166 47.8334 27.4166C46.4087 27.4166 45.07 27.799 43.9168 28.4684V7.83339C43.9167 3.51307 40.4036 0 36.0834 0C31.7633 0 28.25 3.51307 28.25 7.83339V60.2456C28.25 61.2324 27.5998 61.7391 27.3205 61.9113C27.0413 62.0835 26.2896 62.4373 25.4157 61.9974L12.8395 55.7093C11.6939 55.1356 10.4108 54.8334 9.12949 54.8334C4.55488 54.8334 0.833252 58.555 0.833252 63.1296V64.625C0.833252 65.1681 1.05889 65.6864 1.45472 66.0574L24.0579 87.1534C28.7893 91.5674 34.9589 94 41.4286 94H53.7083C67.7455 94 79.1666 82.579 79.1666 68.5416V43.0834C79.1666 38.7631 75.6536 35.25 71.3334 35.25Z" fill="white"/>
</svg>
