<svg width="11" height="21" viewBox="0 0 11 21" fill="none" xmlns="http://www.w3.org/2000/svg">
<path d="M9.48764 0.702148H1.24826C0.561824 0.702148 0 1.29683 0 2.02465V18.9593C0 19.6871 0.561824 20.2824 1.24826 20.2824H9.48764C10.1741 20.2824 10.7359 19.6883 10.7359 18.9599V2.02465C10.7359 1.29683 10.1741 0.702148 9.48764 0.702148ZM4.04999 1.65543H6.68591C6.76934 1.65543 6.83693 1.72703 6.83693 1.81598C6.83693 1.90437 6.76934 1.97598 6.68591 1.97598H4.04999C3.96656 1.97598 3.89897 1.90437 3.89897 1.81598C3.89897 1.72703 3.96656 1.65543 4.04999 1.65543ZM5.36795 19.6211C5.02315 19.6211 4.74382 19.3252 4.74382 18.9593C4.74382 18.5934 5.02315 18.2981 5.36795 18.2981C5.71275 18.2981 5.99208 18.5934 5.99208 18.9593C5.99208 19.3252 5.71275 19.6211 5.36795 19.6211ZM9.86729 17.8348H0.868609V2.79947H9.86729V17.8348Z" fill="white"/>
</svg>
