<svg width="84" height="92" xmlns="http://www.w3.org/2000/svg">
<path d="M81.9023 88.2249H79.3445V7.90884C79.3445 7.06103 78.6573 6.37417 77.8098 6.37417H49.162C48.3144 6.37417 47.6274 7.06103 47.6274 7.90884V14.5592H44.558V7.90884C44.558 7.06103 43.8708 6.37417 43.0234 6.37417H36.3729V1.77001C36.3729 0.922205 35.6857 0.235352 34.8382 0.235352C33.9908 0.235352 33.3036 0.922205 33.3036 1.77001V6.37417H26.6532C25.8056 6.37417 25.1186 7.06103 25.1186 7.90884V14.5592H20.5144C19.6668 14.5592 18.9798 15.246 18.9798 16.0938V28.883H6.19062C5.34299 28.883 4.65596 29.5698 4.65596 30.4176V88.2247H2.09777C1.25014 88.2247 0.56311 88.9115 0.56311 89.7593C0.56311 90.6071 1.25032 91.2942 2.09777 91.2942H81.9023C82.7499 91.2942 83.437 90.6073 83.437 89.7595C83.437 88.9117 82.7498 88.2249 81.9023 88.2249ZM28.1877 9.4435H41.4884V14.5592H28.1877V9.4435ZM23.0721 88.2249H22.0489V85.667C22.0489 84.8192 21.3617 84.1324 20.5142 84.1324C19.6668 84.1324 18.9796 84.8192 18.9796 85.667V88.2249H17.9564V83.1092H23.0721V88.2249ZM33.3034 48.8341V51.4743V88.2249H26.1414V81.5745C26.1414 80.7267 25.4542 80.0399 24.6067 80.0399H16.4218C15.5741 80.0399 14.8871 80.7267 14.8871 81.5745V88.2249H7.7251V31.9525H33.3034V48.8341ZM34.8381 28.8831H22.0489V17.6287H47.6272V47.2994H36.3729V42.1838H40.9771C41.8247 42.1838 42.5117 41.4969 42.5117 40.6491C42.5117 39.8013 41.8245 39.1144 40.9771 39.1144H36.3729V33.9988H40.9771C41.8247 33.9988 42.5117 33.3119 42.5117 32.4641C42.5117 31.6163 41.8245 30.9295 40.9771 30.9295H36.3729V30.418C36.3729 29.57 35.6857 28.8831 34.8381 28.8831ZM61.9512 88.2249H36.3729V51.4743V50.3689H61.9512V88.2249ZM76.275 88.2249H65.0205V48.8341V46.7878C65.0205 45.9399 64.3333 45.2531 63.4858 45.2531C62.6384 45.2531 61.9512 45.9399 61.9512 46.7878V47.2992H58.8819V46.7878C58.8819 45.9399 58.1946 45.2531 57.3472 45.2531C56.4997 45.2531 55.8125 45.9399 55.8125 46.7878V47.2992H50.6969V16.094V9.4435H76.2752V88.2249H76.275Z"/>
<path d="M43.0232 85.1559C43.8708 85.1559 44.5578 84.4687 44.5578 83.6212V54.9736C44.5578 54.1258 43.8706 53.439 43.0232 53.439C42.1757 53.439 41.4885 54.1258 41.4885 54.9736V83.6214C41.4885 84.4689 42.1756 85.1559 43.0232 85.1559Z" />
<path d="M49.162 85.1559C50.0096 85.1559 50.6966 84.4687 50.6966 83.6212V54.9736C50.6966 54.1258 50.0094 53.439 49.162 53.439C48.3145 53.439 47.6273 54.1258 47.6273 54.9736V83.6214C47.6271 84.4689 48.3144 85.1559 49.162 85.1559Z" />
<path d="M55.3007 85.1559C56.1483 85.1559 56.8353 84.4687 56.8353 83.6212V54.9736C56.8353 54.1258 56.1481 53.439 55.3007 53.439C54.4532 53.439 53.766 54.1258 53.766 54.9736V83.6214C53.766 84.4689 54.4532 85.1559 55.3007 85.1559Z" />
<path d="M57.347 19.6746C58.1947 19.6746 58.8817 18.9877 58.8817 18.1399V16.0937C58.8817 15.2459 58.1945 14.5591 57.347 14.5591C56.4996 14.5591 55.8124 15.2459 55.8124 16.0937V18.1401C55.8124 18.9877 56.4994 19.6746 57.347 19.6746Z" />
<path d="M63.4858 19.6746C64.3335 19.6746 65.0205 18.9877 65.0205 18.1399V16.0937C65.0205 15.2459 64.3333 14.5591 63.4858 14.5591C62.6384 14.5591 61.9512 15.2459 61.9512 16.0937V18.1401C61.9512 18.9877 62.6382 19.6746 63.4858 19.6746Z" />
<path d="M69.6246 19.6746C70.4723 19.6746 71.1593 18.9877 71.1593 18.1399V16.0937C71.1593 15.2459 70.4721 14.5591 69.6246 14.5591C68.7772 14.5591 68.09 15.2459 68.09 16.0937V18.1401C68.09 18.9877 68.777 19.6746 69.6246 19.6746Z" />
<path d="M57.347 29.9062C58.1947 29.9062 58.8817 29.2193 58.8817 28.3715V26.3252C58.8817 25.4774 58.1945 24.7905 57.347 24.7905C56.4996 24.7905 55.8124 25.4774 55.8124 26.3252V28.3715C55.8124 29.2193 56.4994 29.9062 57.347 29.9062Z" />
<path d="M63.4858 29.9062C64.3335 29.9062 65.0205 29.2193 65.0205 28.3715V26.3252C65.0205 25.4774 64.3333 24.7905 63.4858 24.7905C62.6384 24.7905 61.9512 25.4774 61.9512 26.3252V28.3715C61.9512 29.2193 62.6382 29.9062 63.4858 29.9062Z" />
<path d="M69.6246 29.9062C70.4723 29.9062 71.1593 29.2193 71.1593 28.3715V26.3252C71.1593 25.4774 70.4721 24.7905 69.6246 24.7905C68.7772 24.7905 68.09 25.4774 68.09 26.3252V28.3715C68.09 29.2193 68.777 29.9062 69.6246 29.9062Z" />
<path d="M57.347 40.1376C58.1947 40.1376 58.8817 39.4508 58.8817 38.603V36.5566C58.8817 35.7088 58.1945 35.022 57.347 35.022C56.4996 35.022 55.8124 35.7088 55.8124 36.5566V38.603C55.8124 39.4506 56.4994 40.1376 57.347 40.1376Z" />
<path d="M63.4858 40.1376C64.3335 40.1376 65.0205 39.4508 65.0205 38.603V36.5566C65.0205 35.7088 64.3333 35.022 63.4858 35.022C62.6384 35.022 61.9512 35.7088 61.9512 36.5566V38.603C61.9512 39.4506 62.6382 40.1376 63.4858 40.1376Z" />
<path d="M69.6246 40.1376C70.4723 40.1376 71.1593 39.4508 71.1593 38.603V36.5566C71.1593 35.7088 70.4721 35.022 69.6246 35.022C68.7772 35.022 68.09 35.7088 68.09 36.5566V38.603C68.09 39.4506 68.777 40.1376 69.6246 40.1376Z" />
<path d="M14.3754 44.2299C15.223 44.2299 15.91 43.5431 15.91 42.6953V40.6489C15.91 39.8011 15.2228 39.1143 14.3754 39.1143C13.5279 39.1143 12.8407 39.8011 12.8407 40.6489V42.6953C12.8407 43.5429 13.5279 44.2299 14.3754 44.2299Z" />
<path d="M20.5143 44.2299C21.3619 44.2299 22.0489 43.5431 22.0489 42.6953V40.6489C22.0489 39.8011 21.3617 39.1143 20.5143 39.1143C19.6668 39.1143 18.9796 39.8011 18.9796 40.6489V42.6953C18.9796 43.5429 19.6666 44.2299 20.5143 44.2299Z" />
<path d="M26.6531 44.2299C27.5007 44.2299 28.1877 43.5431 28.1877 42.6953V40.6489C28.1877 39.8011 27.5005 39.1143 26.6531 39.1143C25.8056 39.1143 25.1184 39.8011 25.1184 40.6489V42.6953C25.1184 43.5429 25.8054 44.2299 26.6531 44.2299Z" />
<path d="M14.3754 54.4614C15.223 54.4614 15.91 53.7745 15.91 52.9267V50.8804C15.91 50.0326 15.2228 49.3457 14.3754 49.3457C13.5279 49.3457 12.8407 50.0326 12.8407 50.8804V52.9267C12.8407 53.7743 13.5279 54.4614 14.3754 54.4614Z" />
<path d="M20.5143 54.4614C21.3619 54.4614 22.0489 53.7745 22.0489 52.9267V50.8804C22.0489 50.0326 21.3617 49.3457 20.5143 49.3457C19.6668 49.3457 18.9796 50.0326 18.9796 50.8804V52.9267C18.9796 53.7743 19.6666 54.4614 20.5143 54.4614Z" />
<path d="M26.6531 54.4614C27.5007 54.4614 28.1877 53.7745 28.1877 52.9267V50.8804C28.1877 50.0326 27.5005 49.3457 26.6531 49.3457C25.8056 49.3457 25.1184 50.0326 25.1184 50.8804V52.9267C25.1184 53.7743 25.8054 54.4614 26.6531 54.4614Z" />
<path d="M14.3754 64.6928C15.223 64.6928 15.91 64.006 15.91 63.1581V61.1118C15.91 60.264 15.2228 59.5771 14.3754 59.5771C13.5279 59.5771 12.8407 60.264 12.8407 61.1118V63.1581C12.8407 64.006 13.5279 64.6928 14.3754 64.6928Z" />
<path d="M20.5143 64.6928C21.3619 64.6928 22.0489 64.006 22.0489 63.1581V61.1118C22.0489 60.264 21.3617 59.5771 20.5143 59.5771C19.6668 59.5771 18.9796 60.264 18.9796 61.1118V63.1581C18.9796 64.006 19.6666 64.6928 20.5143 64.6928Z" />
<path d="M26.6531 64.6928C27.5007 64.6928 28.1877 64.006 28.1877 63.1581V61.1118C28.1877 60.264 27.5005 59.5771 26.6531 59.5771C25.8056 59.5771 25.1184 60.264 25.1184 61.1118V63.1581C25.1184 64.006 25.8054 64.6928 26.6531 64.6928Z" />
<path d="M14.3754 74.9243C15.223 74.9243 15.91 74.2374 15.91 73.3896V71.3433C15.91 70.4954 15.2228 69.8086 14.3754 69.8086C13.5279 69.8086 12.8407 70.4954 12.8407 71.3433V73.3896C12.8407 74.2374 13.5279 74.9243 14.3754 74.9243Z" />
<path d="M20.5143 74.9243C21.3619 74.9243 22.0489 74.2374 22.0489 73.3896V71.3433C22.0489 70.4954 21.3617 69.8086 20.5143 69.8086C19.6668 69.8086 18.9796 70.4954 18.9796 71.3433V73.3896C18.9796 74.2374 19.6666 74.9243 20.5143 74.9243Z" />
<path d="M26.6531 74.9243C27.5007 74.9243 28.1877 74.2374 28.1877 73.3896V71.3433C28.1877 70.4954 27.5005 69.8086 26.6531 69.8086C25.8056 69.8086 25.1184 70.4954 25.1184 71.3433V73.3896C25.1184 74.2374 25.8054 74.9243 26.6531 74.9243Z" />
<path d="M69.6246 50.3691C70.4723 50.3691 71.1593 49.6822 71.1593 48.8344V46.7881C71.1593 45.9403 70.4721 45.2534 69.6246 45.2534C68.7772 45.2534 68.09 45.9403 68.09 46.7881V48.8344C68.09 49.682 68.777 50.3691 69.6246 50.3691Z" />
<path d="M69.6246 60.6C70.4723 60.6 71.1593 59.9132 71.1593 59.0654V57.019C71.1593 56.1712 70.4721 55.4844 69.6246 55.4844C68.7772 55.4844 68.09 56.1712 68.09 57.019V59.0654C68.09 59.913 68.777 60.6 69.6246 60.6Z" />
<path d="M69.6246 70.8315C70.4723 70.8315 71.1593 70.1446 71.1593 69.2968V67.2505C71.1593 66.4027 70.4721 65.7158 69.6246 65.7158C68.7772 65.7158 68.09 66.4027 68.09 67.2505V69.2968C68.09 70.1444 68.777 70.8315 69.6246 70.8315Z" />
<path d="M69.6246 81.0629C70.4723 81.0629 71.1593 80.3761 71.1593 79.5283V77.4819C71.1593 76.6341 70.4721 75.9473 69.6246 75.9473C68.7772 75.9473 68.09 76.6341 68.09 77.4819V79.5283C68.09 80.3759 68.777 81.0629 69.6246 81.0629Z" />
<path d="M42.5115 24.2788C42.5115 23.431 41.8243 22.7441 40.9769 22.7441H28.6992C27.8516 22.7441 27.1646 23.431 27.1646 24.2788C27.1646 25.1266 27.8518 25.8135 28.6992 25.8135H40.9769C41.8245 25.8135 42.5115 25.1266 42.5115 24.2788Z" />
</svg>